<?xml version="1.0" encoding="UTF-8"?>
<!DOCTYPE svg PUBLIC "-//W3C//DTD SVG 1.1//EN" "http://www.w3.org/Graphics/SVG/1.1/DTD/svg11.dtd">
<!-- Creator: CorelDRAW 2018 (64-Bit) -->
<svg xmlns="http://www.w3.org/2000/svg" xml:space="preserve" width="35px" height="35px" version="1.1" style="shape-rendering:geometricPrecision; text-rendering:geometricPrecision; image-rendering:optimizeQuality; fill-rule:evenodd; clip-rule:evenodd"
viewBox="0 0 11150.68 8091.28"
 xmlns:xlink="http://www.w3.org/1999/xlink">
 <defs>
  <style type="text/css">
   <![CDATA[
    .fil0 {fill:#0E539F}
   ]]>
  </style>
 </defs>
 <g id="Слой_x0020_1">
  <metadata id="CorelCorpID_0Corel-Layer"/>
  <path class="fil0" d="M8346.02 1232.86l-3329.4 0 0 -148.21 3329.4 0 0 148.21zm-2770.68 -1232.86c3079.18,0 5575.34,1811.29 5575.34,4045.64 0,2234.35 -2496.16,4045.64 -5575.34,4045.64 -1296.68,0 -2489.92,-321.25 -3436.95,-859.99l1915.78 0c710.84,0 1289.07,-578.27 1289.07,-1289.05 0,-710.79 -578.23,-1289.03 -1289.07,-1289.03l-821.34 -0.52c-279.26,0 -506.44,-227.19 -506.44,-506.42 0,-279.25 227.18,-506.44 506.44,-506.44l2611.26 0 0 80.04 212.38 0 0 1301.43 -115.44 0 0 297.52 1327.14 0 0 -297.52 -115.41 0 0 -3034.36 1232.33 0 0 -1096.33 -3407.58 0 0 -115.36 -297.49 0 0 1327.12 297.49 0 0 -115.43 1078.96 0 0 785.52 -212.38 0 0 84.77 -2611.26 0c-710.8,0 -1289.07,578.24 -1289.07,1289.04 0,710.78 578.27,1289.04 1289.07,1289.04l821.34 0.5c279.25,0 506.44,227.2 506.44,506.43 0,279.25 -227.19,506.43 -506.44,506.43l-2964.19 0c-684.86,-671.95 -1089.98,-1503.12 -1089.98,-2403.03 0,-2234.35 2496.16,-4045.64 5575.34,-4045.64zm-3680.34 7084.33c-56.81,-36.26 -112.84,-73.17 -167.56,-111.05l2372.73 0c535.51,0 1076.93,-457.37 1076.93,-1019.61 0,623.45 -483.11,1130.66 -1076.93,1130.66l-2205.17 0zm4133.57 -3666.07l0 139.78 -156.54 0 0 -139.78 156.54 0zm-3796.7 742.68c0,562.22 435.66,1019.59 971.19,1019.59l858.42 0c30.84,0 55.84,24.85 55.84,55.52 0,30.67 -25,55.54 -55.84,55.54l-858.42 0c-593.84,0 -1076.97,-507.23 -1076.97,-1130.65 0,-623.43 483.13,-1130.61 1076.97,-1130.61 -535.53,0 -971.19,568.43 -971.19,1130.61zm4131.67 1118.77l-195.86 0 0 -219.31 195.86 0 0 219.31zm-1425.13 -4081.97l-219.27 0 0 -195.86 219.27 0 0 195.86zm3706.46 0l-219.31 0 0 -195.86 219.31 0 0 195.86zm-258.42 -422.49l0 1327.12 297.5 0 0 -1327.12 -297.5 0z"/>
 </g>
</svg>
